<svg xmlns="http://www.w3.org/2000/svg" viewBox="0 0 64 64" fill="none">
  <path fill="#0B1724" d="M59 30c0 9.94-9.62 18-22.5 18H26c-7 0-14-6-14-13.5 0-9.8 9-19.5 22-19.5 4.4 0 8.9 1.24 12.3 3.36C51.84 20.72 59 24.14 59 30Z"/>
  <path fill="#FFFFFF" d="M36.5 20c-5.25 0-9.5 3.85-9.5 8.6 0 3.8 3.1 6.9 6.9 6.9 5.25 0 9.6-4.5 9.6-9.8 0-2.95-2.8-5.7-7-5.7Zm-17.9 9.2c-1.53 0-2.6 1.18-2.6 2.74 0 1.7 1.33 3.06 3.03 3.06 1.54 0 2.67-1.24 2.67-2.88 0-1.78-1.36-2.92-3.1-2.92Z"/>
  <path fill="#FFFFFF" d="M52 32c-2.9-1.4-6.9-2.2-10.5-2.2-3.4 0-6.3.6-8.7 1.6-1.6.7-2.2 2.7-.8 3.7 1.6 1.2 4.3 2 7.1 2 4.5 0 9-1.7 12.9-4 1.6-1 .1-2.6-0-1.1Z"/>
  <path fill="#FFFFFF" d="M46.5 19.5c-1.2-.8-2.8-.3-3.5.8-.6 1.1-.2 2.6.9 3.2 1.1.7 2.6.3 3.3-.8.7-1.1.3-2.4-.7-3.2Z"/>
</svg>
