<svg xmlns="http://www.w3.org/2000/svg" viewBox="0 0 64 64" fill="none">
  <defs>
    <linearGradient id="whale-body" x1="10" y1="22" x2="56" y2="46" gradientUnits="userSpaceOnUse">
      <stop offset="0" stop-color="#60a5fa" />
      <stop offset="1" stop-color="#1d4ed8" />
    </linearGradient>
  </defs>
  <path fill="url(#whale-body)" d="M12 31c0 10.5 9.5 19 21 19h8.5c9 0 16.5-6.4 16.5-14.5C58 27 51.5 22 43 22c-6.6 0-12 2.9-16.3 3.6-2.1.3-3.9-1.2-3.9-3.4 0-2 1.6-3.6 3.7-3.6 1.6 0 2.8.7 3.6 1.8l2.3-2c-1.4-1.9-3.6-3.2-6.2-3.2-4.1 0-7.4 3.1-7.4 7.2 0 2 .6 3.8 1.7 5.3-4.1.8-7.5 2.3-7.5 5.3Z"/>
  <path fill="#bfdbfe" d="M14 32.5c0 7.6 6.7 13.5 15.5 13.5H40c6.5 0 11.5-3.7 11.5-9.5 0-5.7-4.8-9.5-11-9.5-7.6 0-12.6 3.5-17.2 3.5-3.9 0-5.8-2.6-5.8-7.1C15.5 27.3 14 29.3 14 32.5Z"/>
  <path fill="#0ea5e9" d="M48 20.5c2.2 0 4.1-1.1 5.1-3l-2.4-1.1c-.5 1-1.4 1.6-2.6 1.6-.8 0-1.7-.3-2.3-.9l-1.9 1.4c1 1.3 2.5 2 4.1 2Z"/>
  <path fill="#0ea5e9" d="M53 27.8c2.6 0 4.7-1.9 5.2-4.5l-2.6-.5c-.2 1.3-1.2 2.1-2.4 2.1-1.3 0-2.3-.8-2.7-2l-2.6.9c.7 2 2.1 3.5 5.1 3.5Z"/>
  <circle cx="36.5" cy="27.5" r="1.8" fill="#0f172a" />
  <path fill="#38bdf8" d="M12.5 34.7C12 35.5 12 36.5 12 37.1c0 3.6 2.9 6.4 6.9 6.4 3 0 5-1.5 6.7-3.2 1.5-1.5 2.8-3 4.8-3 1.5 0 2.7.7 3.5 1.6l2.1-1.6c-1.2-1.6-3.1-2.6-5.6-2.6-3 0-4.8 1.6-6.5 3.4-1.9 2-3.3 3.4-5.3 3.4-2.6 0-4.4-1.5-5-3.8Z"/>
</svg>
